<svg class="svg-icon" style="width: 1em; height: 1em;vertical-align: middle;fill: currentColor;overflow: hidden;" viewBox="0 0 1024 1024" version="1.1" xmlns="http://www.w3.org/2000/svg"><path d="M559.1 814.2h-86.9c-6.6 0-12-5.4-12-12s5.4-12 12-12h86.9c6.6 0 12 5.4 12 12s-5.4 12-12 12z" fill="#2A3342" /><path d="M267.3 814.2h-38.1c-51.9 0-94.1-42.2-94.1-94.1V298.6c0-51.9 42.2-94.1 94.1-94.1h567.6c51.9 0 94.1 42.2 94.1 94.1V720c0 51.9-42.2 94.1-94.1 94.1h-32.9v-24h32.9c38.7 0 70.1-31.4 70.1-70.1V298.6c0-38.7-31.4-70.1-70.1-70.1H229.2c-38.7 0-70.1 31.4-70.1 70.1v421.5c0 38.7 31.4 70.1 70.1 70.1h38.1v24z" fill="#2A3342" /><path d="M403.7 572.8H137.8V312.7c0-28.5 9.3-55.4 26.1-75.7 17.3-21 40.6-32.5 65.5-32.5h569.8c50.5 0 91.6 48.5 91.6 108.2v177.6h-325l-162.1 82.5z m-241.9-24h236.1L560 466.3h306.8V312.7c0-46.4-30.3-84.2-67.6-84.2H229.4c-37.3 0-67.6 37.8-67.6 84.2v236.1z" fill="#2A3342" /><path d="M695.7 713.5H448.4V538.6c0-6.6 5.4-12 12-12s12 5.4 12 12v150.9h199.3V490.3H572c-6.6 0-12-5.4-12-12s5.4-12 12-12h123.7v247.2z" fill="#2A3342" /><path d="M727.9 729.5h-44.2c-6.6 0-12-5.4-12-12s5.4-12 12-12h44.2c13.2 0 24-10.8 24-24V498.6c0-4.9-1.4-9.5-4.2-13.5-3.8-5.5-2.4-12.9 3.1-16.7 5.5-3.8 12.9-2.4 16.7 3.1 5.5 8 8.4 17.4 8.4 27.1v182.9c0 26.5-21.5 48-48 48zM615.2 638.9c-16.5 0-30-13.5-30-30s13.5-30 30-30 30 13.5 30 30-13.5 30-30 30z m0-41c-6.1 0-11 4.9-11 11s4.9 11 11 11 11-4.9 11-11-4.9-11-11-11zM460.4 686.9h-182c-40.5 0-73.5-33-73.5-73.5v-52.6c0-6.6 5.4-12 12-12s12 5.4 12 12v52.6c0 27.3 22.2 49.5 49.5 49.5h182c6.6 0 12 5.4 12 12s-5.4 12-12 12z" fill="#2A3342" /><path d="M453.7 629.8H223.6c-6.6 0-12-5.4-12-12s5.4-12 12-12h230.1c6.6 0 12 5.4 12 12s-5.4 12-12 12zM356.5 878.4c-37.8 0-68.6-30.8-68.6-68.6s30.8-68.6 68.6-68.6 68.6 30.8 68.6 68.6-30.8 68.6-68.6 68.6z m0-113.2c-24.6 0-44.6 20-44.6 44.6s20 44.6 44.6 44.6 44.6-20 44.6-44.6-20-44.6-44.6-44.6zM676.9 878.4c-37.8 0-68.6-30.8-68.6-68.6s30.8-68.6 68.6-68.6 68.6 30.8 68.6 68.6-30.8 68.6-68.6 68.6z m0-113.2c-24.6 0-44.6 20-44.6 44.6s20 44.6 44.6 44.6 44.6-20 44.6-44.6-20-44.6-44.6-44.6z" fill="#2A3342" /><path d="M289.8 420.2h-72.9c-5.2 0-9.5-4.3-9.5-9.5s4.3-9.5 9.5-9.5h72.9c5.2 0 9.5 4.3 9.5 9.5s-4.3 9.5-9.5 9.5zM289.8 487.9h-72.9c-5.2 0-9.5-4.3-9.5-9.5s4.3-9.5 9.5-9.5h72.9c5.2 0 9.5 4.3 9.5 9.5s-4.3 9.5-9.5 9.5zM721.9 433.4c-1.8 0-3.5-0.5-5.1-1.5-4.4-2.8-5.7-8.7-2.9-13.1l34-53.1h-83.6l49.6-76.4c2.9-4.4 8.7-5.6 13.1-2.8 4.4 2.9 5.6 8.7 2.8 13.1l-30.6 47h83.2L729.9 429c-1.8 2.9-4.9 4.4-8 4.4z" fill="#D84848" /></svg>