<svg class="svg-icon" style="width: 1em; height: 1em;vertical-align: middle;fill: currentColor;overflow: hidden;" viewBox="0 0 1024 1024" version="1.1" xmlns="http://www.w3.org/2000/svg"><path d="M509.625554 16.443431c-236.516402 0-428.260118 191.743716-428.260118 428.258104 0 73.074757 18.309966 141.871785 50.582704 202.064026 5.407315 14.80241 18.173047 34.052692 35.908153 56.029283 12.851307 16.990102 26.936903 32.994586 42.12893 47.875523 111.732375 119.007231 299.639324 273.441383 299.639324 273.441383C690.54558 894.244586 791.744212 781.407794 842.918892 713.640683c59.393879-73.514712 94.964766-167.073032 94.964766-268.939147C937.883658 208.186141 746.139942 16.443431 509.625554 16.443431zM840.391921 646.233991l-3.276001 0c0 0-146.204886 234.22904-327.490366 302.300194 0 0-237.649008-158.10883-327.493387-302.300194l-3.274994 0c-30.014572-55.986999-47.108371-120.397568-47.108371-188.935859 0-215.655302 169.183204-390.472342 377.876752-390.472342 208.690528 0 377.874739 174.81704 377.874739 390.472342C887.500292 525.83743 870.406494 590.246993 840.391921 646.233991zM509.625554 243.168073c-111.322623 0-201.533463 90.238022-201.533463 201.533463 0 111.296447 90.21084 201.533463 201.533463 201.533463 111.319602 0 201.533463-90.237016 201.533463-201.533463C711.159016 333.406095 620.946163 243.168073 509.625554 243.168073zM509.625554 596.196952c-83.620581 0-151.422929-67.800335-151.422929-151.446085s67.802348-151.446085 151.422929-151.446085c83.618567 0 151.419909 67.800335 151.419909 151.446085S593.244121 596.196952 509.625554 596.196952z"  /></svg>